<svg width="25" height="25" viewBox="0 0 25 25" fill="none" xmlns="http://www.w3.org/2000/svg">
<path d="M13 1C6.6543 1 1.5 6.1543 1.5 12.5C1.5 18.8457 6.6543 24 13 24C17.959 24 20.9863 21.7188 22.5625 18.8906C24.1387 16.0625 24.3379 12.7402 23.8594 10.4688L23.7656 10.0781H23.375L13 10.0625H12.5V15.2656H18.2188C17.3555 17.2656 15.5977 18.6406 13 18.6406C9.60547 18.6406 6.85938 15.8945 6.85938 12.5C6.85938 9.10547 9.60547 6.35938 13 6.35938C14.5254 6.35938 15.9102 6.92383 16.9844 7.84375L17.3438 8.14062L20.7656 4.71875L21.125 4.34375L20.75 4C18.707 2.13867 15.9805 1 13 1ZM13 2C15.5371 2 17.8262 2.92773 19.6406 4.42188L17.2344 6.82812C16.0449 5.93945 14.5996 5.35938 13 5.35938C9.06445 5.35938 5.85938 8.56445 5.85938 12.5C5.85938 16.4355 9.06445 19.6406 13 19.6406C16.2754 19.6406 18.6309 17.6328 19.4688 14.9062L19.6719 14.2656H13.5V11.0625L22.9219 11.0781C23.2539 13.0957 23.0332 15.9922 21.6875 18.4062C20.2578 20.9688 17.6602 23 13 23C7.19336 23 2.5 18.3047 2.5 12.5C2.5 6.69531 7.19336 2 13 2Z" fill="black"/>
</svg>
